<?xml version="1.0" encoding="UTF-8" standalone="no"?>
<!DOCTYPE svg PUBLIC "-//W3C//DTD SVG 1.1//EN"
 "http://www.w3.org/Graphics/SVG/1.1/DTD/svg11.dtd">
<!-- Generated by graphviz version 3.0.0 (20220226.1711)
 -->
<!-- Title: パッケージ関連図 Pages: 1 -->
<svg width="346pt" height="158pt"
 viewBox="0.00 0.00 345.50 158.00" xmlns="http://www.w3.org/2000/svg" xmlns:xlink="http://www.w3.org/1999/xlink">
<g id="graph0" class="graph" transform="scale(1 1) rotate(0) translate(4 154)">
<title>パッケージ関連図</title>
<polygon fill="white" stroke="transparent" points="-4,4 -4,-154 341.5,-154 341.5,4 -4,4"/>
<text text-anchor="middle" x="168.75" y="-7.8" font-family="Times New Roman,serif" font-size="14.00">パッケージ関連図</text>
<!-- summary -->
<g id="node1" class="node">
<title>summary</title>
<polygon fill="none" stroke="black" points="209,-150 0,-150 0,-97 215,-97 215,-144 209,-150"/>
<polyline fill="none" stroke="black" points="209,-150 209,-144 "/>
<polyline fill="none" stroke="black" points="215,-144 209,-144 "/>
<text text-anchor="start" x="8" y="-134.8" font-family="Times New Roman,serif" font-size="14.00">root: mrs.application.domain.model</text>
<text text-anchor="start" x="8" y="-119.8" font-family="Times New Roman,serif" font-size="14.00">パッケージ数: 3</text>
<text text-anchor="start" x="8" y="-104.8" font-family="Times New Roman,serif" font-size="14.00">関連数: 2</text>
</g>
<!-- mrs.application.domain.model.reservation -->
<g id="node2" class="node">
<title>mrs.application.domain.model.reservation</title>
<g id="a_node2"><a xlink:href="./domain.html#mrs.application.domain.model.reservation" xlink:title="予約\nreservation">
<polygon fill="#eedd82" stroke="black" points="310,-142.5 233,-142.5 233,-104.5 310,-104.5 310,-142.5"/>
<text text-anchor="middle" x="271.5" y="-127.3" font-family="Times New Roman,serif" font-size="14.00">予約</text>
<text text-anchor="middle" x="271.5" y="-112.3" font-family="Times New Roman,serif" font-size="14.00">reservation</text>
</a>
</g>
</g>
<!-- mrs.application.domain.model.room -->
<g id="node3" class="node">
<title>mrs.application.domain.model.room</title>
<g id="a_node3"><a xlink:href="./domain.html#mrs.application.domain.model.room" xlink:title="会議室\nroom">
<polygon fill="#eedd82" stroke="black" points="265.5,-61 197.5,-61 197.5,-23 265.5,-23 265.5,-61"/>
<text text-anchor="middle" x="231.5" y="-45.8" font-family="Times New Roman,serif" font-size="14.00">会議室</text>
<text text-anchor="middle" x="231.5" y="-30.8" font-family="Times New Roman,serif" font-size="14.00">room</text>
</a>
</g>
</g>
<!-- mrs.application.domain.model.reservation&#45;&gt;mrs.application.domain.model.room -->
<g id="edge1" class="edge">
<title>mrs.application.domain.model.reservation&#45;&gt;mrs.application.domain.model.room</title>
<path fill="none" stroke="black" d="M262.42,-104.46C257.35,-94.37 250.91,-81.58 245.23,-70.29"/>
<polygon fill="black" stroke="black" points="248.3,-68.6 240.68,-61.24 242.05,-71.75 248.3,-68.6"/>
</g>
<!-- mrs.application.domain.model.auth -->
<g id="node4" class="node">
<title>mrs.application.domain.model.auth</title>
<g id="a_node4"><a xlink:href="./domain.html#mrs.application.domain.model.auth" xlink:title="認証\nauth">
<polygon fill="#eedd82" stroke="black" points="337.5,-61 283.5,-61 283.5,-23 337.5,-23 337.5,-61"/>
<text text-anchor="middle" x="310.5" y="-45.8" font-family="Times New Roman,serif" font-size="14.00">認証</text>
<text text-anchor="middle" x="310.5" y="-30.8" font-family="Times New Roman,serif" font-size="14.00">auth</text>
</a>
</g>
</g>
<!-- mrs.application.domain.model.reservation&#45;&gt;mrs.application.domain.model.auth -->
<g id="edge2" class="edge">
<title>mrs.application.domain.model.reservation&#45;&gt;mrs.application.domain.model.auth</title>
<path fill="none" stroke="black" d="M280.35,-104.46C285.3,-94.37 291.57,-81.58 297.11,-70.29"/>
<polygon fill="black" stroke="black" points="300.29,-71.76 301.55,-61.24 294,-68.68 300.29,-71.76"/>
</g>
</g>
</svg>
