<?xml version="1.0" encoding="UTF-8" standalone="no"?>
<!DOCTYPE svg PUBLIC "-//W3C//DTD SVG 1.1//EN"
        "http://www.w3.org/Graphics/SVG/1.1/DTD/svg11.dtd">
<!-- Generated by graphviz version 3.0.0 (20220226.1711)
 -->
<!-- Title: アーキテクチャ図 Pages: 1 -->
<svg xmlns:xlink="http://www.w3.org/1999/xlink" width="584pt"
     height="227pt" viewBox="0.00 0.00 583.50 227.00" xmlns="http://www.w3.org/2000/svg">
    <g id="graph0" class="graph" transform="scale(1 1) rotate(0) translate(4 223)">
        <title>アーキテクチャ図</title>
        <polygon fill="white" stroke="transparent" points="-4,4 -4,-223 579.5,-223 579.5,4 -4,4"/>
        <text text-anchor="middle" x="287.75" y="-7.8" font-family="Times New Roman,serif" font-size="14.00">
            アーキテクチャ図
        </text>
        <g id="clust1" class="cluster">
            <title>clusterArchitecture</title>
            <polygon fill="lightyellow" stroke="#eedd82" points="239.5,-87 239.5,-211 510.5,-211 510.5,-87 239.5,-87"/>
        </g>
        <!-- mrs.application -->
        <g id="node1" class="node">
            <title>mrs.application</title>
            <polygon fill="#eedd82" stroke="black"
                     points="427,-131 248,-131 248,-127 244,-127 244,-123 248,-123 248,-103 244,-103 244,-99 248,-99 248,-95 427,-95 427,-131"/>
            <polyline fill="none" stroke="black" points="248,-127 252,-127 252,-123 248,-123 "/>
            <polyline fill="none" stroke="black" points="248,-103 252,-103 252,-99 248,-99 "/>
            <text text-anchor="middle" x="337.5" y="-108" font-family="Times New Roman,serif" font-size="20.00">
                アプリケーション
            </text>
        </g>
        <!-- org.springframework -->
        <g id="node4" class="node">
            <title>org.springframework</title>
            <polygon fill="lightgrey" stroke="black"
                     points="286.5,-59 152.5,-59 152.5,-55 148.5,-55 148.5,-51 152.5,-51 152.5,-31 148.5,-31 148.5,-27 152.5,-27 152.5,-23 286.5,-23 286.5,-59"/>
            <polyline fill="none" stroke="black" points="152.5,-55 156.5,-55 156.5,-51 152.5,-51 "/>
            <polyline fill="none" stroke="black" points="152.5,-31 156.5,-31 156.5,-27 152.5,-27 "/>
            <text text-anchor="middle" x="219.5" y="-37.3" font-family="Times New Roman,serif" font-size="14.00">
                org.springframework
            </text>
        </g>
        <!-- mrs.application&#45;&gt;org.springframework -->
        <g id="edge5" class="edge">
            <title>mrs.application&#45;&gt;org.springframework</title>
            <path fill="none" stroke="black" d="M267.25,-94.83C267.25,-94.83 267.25,-69.41 267.25,-69.41"/>
            <polygon fill="black" stroke="black" points="270.75,-69.41 267.25,-59.41 263.75,-69.41 270.75,-69.41"/>
        </g>
        <!-- lombok -->
        <g id="node5" class="node">
            <title>lombok</title>
            <polygon fill="lightgrey" stroke="black"
                     points="383,-59 324,-59 324,-55 320,-55 320,-51 324,-51 324,-31 320,-31 320,-27 324,-27 324,-23 383,-23 383,-59"/>
            <polyline fill="none" stroke="black" points="324,-55 328,-55 328,-51 324,-51 "/>
            <polyline fill="none" stroke="black" points="324,-31 328,-31 328,-27 324,-27 "/>
            <text text-anchor="middle" x="353.5" y="-37.3" font-family="Times New Roman,serif" font-size="14.00">
                lombok
            </text>
        </g>
        <!-- mrs.application&#45;&gt;lombok -->
        <g id="edge4" class="edge">
            <title>mrs.application&#45;&gt;lombok</title>
            <path fill="none" stroke="black" d="M353.5,-94.83C353.5,-94.83 353.5,-69.41 353.5,-69.41"/>
            <polygon fill="black" stroke="black" points="357,-69.41 353.5,-59.41 350,-69.41 357,-69.41"/>
        </g>
        <!-- mrs.common -->
        <g id="node2" class="node">
            <title>mrs.common</title>
            <polygon fill="#eedd82" stroke="black"
                     points="502,-131 445,-131 445,-127 441,-127 441,-123 445,-123 445,-103 441,-103 441,-99 445,-99 445,-95 502,-95 502,-131"/>
            <polyline fill="none" stroke="black" points="445,-127 449,-127 449,-123 445,-123 "/>
            <polyline fill="none" stroke="black" points="445,-103 449,-103 449,-99 445,-99 "/>
            <text text-anchor="middle" x="473.5" y="-108" font-family="Times New Roman,serif" font-size="20.00">共通
            </text>
        </g>
        <!-- mrs.infrastructure -->
        <g id="node3" class="node">
            <title>mrs.infrastructure</title>
            <polygon fill="#eedd82" stroke="black"
                     points="502,-203 283,-203 283,-199 279,-199 279,-195 283,-195 283,-175 279,-175 279,-171 283,-171 283,-167 502,-167 502,-203"/>
            <polyline fill="none" stroke="black" points="283,-199 287,-199 287,-195 283,-195 "/>
            <polyline fill="none" stroke="black" points="283,-175 287,-175 287,-171 283,-171 "/>
            <text text-anchor="middle" x="392.5" y="-180" font-family="Times New Roman,serif" font-size="20.00">
                インフラストラクチャ
            </text>
        </g>
        <!-- mrs.common&#45;&gt;mrs.infrastructure -->
        <g id="edge3" class="edge">
            <title>mrs.common&#45;&gt;mrs.infrastructure</title>
            <path fill="none" stroke="black" d="M464,-131.17C464,-131.17 464,-156.59 464,-156.59"/>
            <polygon fill="black" stroke="black" points="460.5,-156.59 464,-166.59 467.5,-156.59 460.5,-156.59"/>
        </g>
        <!-- jakarta.validation -->
        <g id="node7" class="node">
            <title>jakarta.validation</title>
            <polygon fill="lightgrey" stroke="black"
                     points="575.5,-59 465.5,-59 465.5,-55 461.5,-55 461.5,-51 465.5,-51 465.5,-31 461.5,-31 461.5,-27 465.5,-27 465.5,-23 575.5,-23 575.5,-59"/>
            <polyline fill="none" stroke="black" points="465.5,-55 469.5,-55 469.5,-51 465.5,-51 "/>
            <polyline fill="none" stroke="black" points="465.5,-31 469.5,-31 469.5,-27 465.5,-27 "/>
            <text text-anchor="middle" x="520.5" y="-37.3" font-family="Times New Roman,serif" font-size="14.00">
                jakarta.validation
            </text>
        </g>
        <!-- mrs.common&#45;&gt;jakarta.validation -->
        <g id="edge8" class="edge">
            <title>mrs.common&#45;&gt;jakarta.validation</title>
            <path fill="none" stroke="black" d="M483.75,-94.83C483.75,-94.83 483.75,-69.41 483.75,-69.41"/>
            <polygon fill="black" stroke="black" points="487.25,-69.41 483.75,-59.41 480.25,-69.41 487.25,-69.41"/>
        </g>
        <!-- mrs.infrastructure&#45;&gt;mrs.application -->
        <g id="edge1" class="edge">
            <title>mrs.infrastructure&#45;&gt;mrs.application</title>
            <path fill="none" stroke="black" d="M355,-166.83C355,-166.83 355,-141.41 355,-141.41"/>
            <polygon fill="black" stroke="black" points="358.5,-141.41 355,-131.41 351.5,-141.41 358.5,-141.41"/>
        </g>
        <!-- mrs.infrastructure&#45;&gt;mrs.common -->
        <g id="edge10" class="edge">
            <title>mrs.infrastructure&#45;&gt;mrs.common</title>
            <path fill="none" stroke="black" d="M483,-166.83C483,-166.83 483,-141.41 483,-141.41"/>
            <polygon fill="black" stroke="black" points="486.5,-141.41 483,-131.41 479.5,-141.41 486.5,-141.41"/>
        </g>
        <!-- mrs.infrastructure&#45;&gt;org.springframework -->
        <g id="edge2" class="edge">
            <title>mrs.infrastructure&#45;&gt;org.springframework</title>
            <path fill="none" stroke="black"
                  d="M282.61,-179C248.54,-179 219.75,-179 219.75,-179 219.75,-179 219.75,-69.04 219.75,-69.04"/>
            <polygon fill="black" stroke="black" points="223.25,-69.04 219.75,-59.04 216.25,-69.04 223.25,-69.04"/>
        </g>
        <!-- mrs.infrastructure&#45;&gt;lombok -->
        <g id="edge11" class="edge">
            <title>mrs.infrastructure&#45;&gt;lombok</title>
            <path fill="none" stroke="black" d="M433,-166.91C433,-127.01 433,-35 433,-35 433,-35 393.1,-35 393.1,-35"/>
            <polygon fill="black" stroke="black" points="393.1,-31.5 383.1,-35 393.1,-38.5 393.1,-31.5"/>
        </g>
        <!-- jakarta.persistence -->
        <g id="node6" class="node">
            <title>jakarta.persistence</title>
            <polygon fill="lightgrey" stroke="black"
                     points="119,-131 0,-131 0,-127 -4,-127 -4,-123 0,-123 0,-103 -4,-103 -4,-99 0,-99 0,-95 119,-95 119,-131"/>
            <polyline fill="none" stroke="black" points="0,-127 4,-127 4,-123 0,-123 "/>
            <polyline fill="none" stroke="black" points="0,-103 4,-103 4,-99 0,-99 "/>
            <text text-anchor="middle" x="59.5" y="-109.3" font-family="Times New Roman,serif" font-size="14.00">
                jakarta.persistence
            </text>
        </g>
        <!-- mrs.infrastructure&#45;&gt;jakarta.persistence -->
        <g id="edge6" class="edge">
            <title>mrs.infrastructure&#45;&gt;jakarta.persistence</title>
            <path fill="none" stroke="black"
                  d="M282.54,-191C185.54,-191 59.5,-191 59.5,-191 59.5,-191 59.5,-141.09 59.5,-141.09"/>
            <polygon fill="black" stroke="black" points="63,-141.09 59.5,-131.09 56,-141.09 63,-141.09"/>
        </g>
        <!-- mrs.infrastructure&#45;&gt;jakarta.validation -->
        <g id="edge7" class="edge">
            <title>mrs.infrastructure&#45;&gt;jakarta.validation</title>
            <path fill="none" stroke="black"
                  d="M439,-166.96C439,-129.55 439,-47 439,-47 439,-47 455.24,-47 455.24,-47"/>
            <polygon fill="black" stroke="black" points="455.24,-50.5 465.24,-47 455.24,-43.5 455.24,-50.5"/>
        </g>
        <!-- mrs -->
        <g id="node8" class="node">
            <title>mrs</title>
            <polygon fill="lightgrey" stroke="black"
                     points="191.5,-131 137.5,-131 137.5,-127 133.5,-127 133.5,-123 137.5,-123 137.5,-103 133.5,-103 133.5,-99 137.5,-99 137.5,-95 191.5,-95 191.5,-131"/>
            <polyline fill="none" stroke="black" points="137.5,-127 141.5,-127 141.5,-123 137.5,-123 "/>
            <polyline fill="none" stroke="black" points="137.5,-103 141.5,-103 141.5,-99 137.5,-99 "/>
            <text text-anchor="middle" x="164.5" y="-109.3" font-family="Times New Roman,serif" font-size="14.00">mrs
            </text>
        </g>
        <!-- mrs&#45;&gt;org.springframework -->
        <g id="edge9" class="edge">
            <title>mrs&#45;&gt;org.springframework</title>
            <path fill="none" stroke="black" d="M172,-94.83C172,-94.83 172,-69.41 172,-69.41"/>
            <polygon fill="black" stroke="black" points="175.5,-69.41 172,-59.41 168.5,-69.41 175.5,-69.41"/>
        </g>
    </g>
</svg>
